<svg width="256" height="256" viewBox="0 0 256 256" fill="none" xmlns="http://www.w3.org/2000/svg">
<g clip-path="url(#clip0_402_22)">
<path d="M161.451 105.127L161.499 77.8267H67.1803V64.1042H161.499L161.499 36.8523L195.612 70.9655L161.451 105.127Z" fill="white"/>
<path d="M66.5 110.833C62.8754 110.833 59.3992 112.273 56.8362 114.836C54.2733 117.399 52.8334 120.875 52.8334 124.5V179.167H66.5V151.833H80.1667V179.167H93.8334V124.5C93.8334 120.875 92.3935 117.399 89.8305 114.836C87.2675 112.273 83.7913 110.833 80.1667 110.833H66.5ZM66.5 124.5H80.1667V138.167H66.5V124.5ZM148.5 134.75V124.5C148.5 120.875 147.06 117.399 144.497 114.836C141.934 112.273 138.458 110.833 134.833 110.833H107.5V179.167H134.833C138.458 179.167 141.934 177.727 144.497 175.164C147.06 172.601 148.5 169.125 148.5 165.5V155.25C148.431 152.553 147.329 149.986 145.421 148.079C143.514 146.171 140.947 145.069 138.25 145C140.947 144.931 143.514 143.829 145.421 141.921C147.329 140.014 148.431 137.447 148.5 134.75V134.75ZM134.833 165.5H121.167V151.833H134.833V165.5ZM134.833 138.167H121.167V124.5H134.833V138.167ZM175.833 110.833C172.209 110.833 168.733 112.273 166.17 114.836C163.607 117.399 162.167 120.875 162.167 124.5V165.5C162.167 169.125 163.607 172.601 166.17 175.164C168.733 177.727 172.209 179.167 175.833 179.167H189.5C193.125 179.167 196.601 177.727 199.164 175.164C201.727 172.601 203.167 169.125 203.167 165.5V158.667H189.5V165.5H175.833V124.5H189.5V131.333H203.167V124.5C203.167 120.875 201.727 117.399 199.164 114.836C196.601 112.273 193.125 110.833 189.5 110.833H175.833Z" fill="white"/>
</g>
<defs>
<clipPath id="clip0_402_22">
<rect width="256" height="256" fill="white"/>
</clipPath>
</defs>
</svg>
